<?xml version="1.0" encoding="UTF-8" standalone="no"?>
<svg
   version="1.1"
   x="0px"
   y="0px"
   viewBox="0.0 0.0 512.0 512.0"
   enable-background="new 0 0 100 100"
   xml:space="preserve"
   id="svg5"
   sodipodi:docname="logo.svg"
   width="512.0"
   height="512.0"
   inkscape:version="1.3.2 (091e20e, 2023-11-25, custom)"
   xmlns:inkscape="http://www.inkscape.org/namespaces/inkscape"
   xmlns:sodipodi="http://sodipodi.sourceforge.net/DTD/sodipodi-0.dtd"
   xmlns="http://www.w3.org/2000/svg"
   xmlns:svg="http://www.w3.org/2000/svg"><defs
     id="defs5" /><sodipodi:namedview
     id="namedview5"
     pagecolor="#505050"
     bordercolor="#eeeeee"
     borderopacity="1"
     inkscape:showpageshadow="0"
     inkscape:pageopacity="0"
     inkscape:pagecheckerboard="0"
     inkscape:deskcolor="#d1d1d1"
     inkscape:zoom="1.6701862"
     inkscape:cx="238.29678"
     inkscape:cy="267.93419"
     inkscape:window-width="2560"
     inkscape:window-height="1377"
     inkscape:window-x="1192"
     inkscape:window-y="239"
     inkscape:window-maximized="1"
     inkscape:current-layer="svg5"
     inkscape:document-units="px" /><path
     id="path1"
     style="fill:#ffffff"
     d="M 44.542969,16.5 C 43.11997,16.5 42,17.383283 42,18.738281 V 24.5 H 34.007812 C 32.421814,24.5 31,25.527345 31,27.027344 V 32.5 H 16.09375 C 14.112754,32.5 12,34.118957 12,36.001953 V 80.416016 C 12,82.299012 14.112754,83.5 16.09375,83.5 H 73.632812 C 75.61881,83.5 77,82.299012 77,80.416016 V 65.5 h 2.984375 C 81.570373,65.5 83,64.028483 83,62.521484 V 53.5 h 2.916016 C 87.340014,53.5 88,52.028874 88,50.671875 V 18.738281 C 88,17.383283 87.340014,16.5 85.916016,16.5 Z M 46,19.5 H 85 V 19.962891 49.5 H 83 V 27.027344 C 83,25.527345 81.570373,24.5 79.984375,24.5 H 46 Z m -11,9 h 7 4 33 v 21 4 8 H 77 V 36.001953 C 77,34.118957 75.61881,32.5 73.632812,32.5 H 35 Z m -17,9 h 13 4 37 v 24 4 13 H 18 Z m 12,7 a 5,5 0 0 0 -5,5 5,5 0 0 0 5,5 5,5 0 0 0 5,-5 5,5 0 0 0 -5,-5 z M 54.808594,55.351562 43.0625,68.707031 35,60.314453 34.847656,59.916016 21.490234,75.5 h 46.744141 z"
     transform="scale(5.12, 5.12)" /></svg>
